 <svg class="Logo" id="Logo" viewBox="0, 0, 3000, 250" xmlns="http://www.w3.org/2000/svg" xmlns:xlink="http://www.w3.org/1999/xlink" version="1.1"  style="shape-rendering:geometricPrecision; text-rendering:geometricPrecision; image-rendering:optimizeQuality; fill-rule:evenodd; clip-rule:evenodd">
    <g>
    <path style="opacity:1" fill="#685b1a" d="M 73.5,-0.5 C 80.8333,-0.5 88.1667,-0.5 95.5,-0.5C 96.209,0.403972 97.209,0.737305 98.5,0.5C 99.5,1.16667 100.5,1.83333 101.5,2.5C 90.1667,1.16667 78.8333,1.16667 67.5,2.5C 68.5,1.83333 69.5,1.16667 70.5,0.5C 71.791,0.737305 72.791,0.403972 73.5,-0.5 Z"/>
    </g>
    <g>
    <path style="opacity:0.486" fill="#37310c" d="M 98.5,0.5 C 107.184,1.3945 115.184,4.06117 122.5,8.5C 121.833,8.5 121.167,8.5 120.5,8.5C 118.5,7.83333 116.5,7.16667 114.5,6.5C 113.07,5.46253 111.403,4.79586 109.5,4.5C 109.167,4.5 108.833,4.5 108.5,4.5C 106.485,3.07619 104.152,2.40953 101.5,2.5C 100.5,1.83333 99.5,1.16667 98.5,0.5 Z"/>
    </g>
    <g>
    <path style="opacity:1" fill="#d8c341" d="M 101.5,2.5 C 101.5,2.83333 101.5,3.16667 101.5,3.5C 90.1667,2.16667 78.8333,2.16667 67.5,3.5C 67.5,3.16667 67.5,2.83333 67.5,2.5C 78.8333,1.16667 90.1667,1.16667 101.5,2.5 Z"/>
    </g>
    <g>
    <path style="opacity:1" fill="#938221" d="M 101.5,3.5 C 101.5,3.16667 101.5,2.83333 101.5,2.5C 104.152,2.40953 106.485,3.07619 108.5,4.5C 107.167,4.5 105.833,4.5 104.5,4.5C 103.791,3.59603 102.791,3.26269 101.5,3.5 Z"/>
    </g>
    <g>
    <path style="opacity:1" fill="#ab9826" d="M 67.5,2.5 C 67.5,2.83333 67.5,3.16667 67.5,3.5C 65.5648,4.14952 63.5648,4.48285 61.5,4.5C 63.1016,2.92606 65.1016,2.25939 67.5,2.5 Z"/>
    </g>
    <g>
    <path style="opacity:0.965" fill="#3c330c" d="M 70.5,0.5 C 69.5,1.16667 68.5,1.83333 67.5,2.5C 65.1016,2.25939 63.1016,2.92606 61.5,4.5C 59.901,4.23219 58.5676,4.56552 57.5,5.5C 56.1667,5.5 54.8333,5.5 53.5,5.5C 58.7815,2.85399 64.4482,1.18732 70.5,0.5 Z"/>
    </g>
    <g>
    <path style="opacity:1" fill="#fcde31" d="M 101.5,3.5 C 102.791,3.26269 103.791,3.59603 104.5,4.5C 104.804,5.14987 105.137,5.81654 105.5,6.5C 113.111,8.50456 120.111,11.6712 126.5,16C 128.866,16.4396 131.199,16.9396 133.5,17.5C 133.539,18.5832 133.873,19.5832 134.5,20.5C 136.386,21.4063 138.22,22.4063 140,23.5C 143.647,29.14 147.647,34.4734 152,39.5C 153.412,41.6857 155.245,43.3524 157.5,44.5C 157.706,47.2384 158.706,49.5718 160.5,51.5C 160.971,53.5786 161.637,55.5786 162.5,57.5C 163.611,64.4835 164.778,71.4835 166,78.5C 166.5,84.8246 166.666,91.1579 166.5,97.5C 166.5,99.8333 166.5,102.167 166.5,104.5C 166.5,105.5 166.5,106.5 166.5,107.5C 165.833,107.833 165.167,108.167 164.5,108.5C 162.932,110.811 162.098,113.478 162,116.5C 160.065,121.335 157.399,125.669 154,129.5C 153.667,131.5 153.333,133.5 153,135.5C 151.989,136.337 150.822,136.67 149.5,136.5C 149.5,138.167 149.5,139.833 149.5,141.5C 148.5,141.5 147.5,141.5 146.5,141.5C 148.14,138.15 148.974,134.483 149,130.5C 150,129.167 151,129.167 152,130.5C 153.167,128.667 154.333,126.833 155.5,125C 154.692,124.692 154.025,124.192 153.5,123.5C 153.846,122.304 154.346,122.304 155,123.5C 154.845,121.189 154.845,118.856 155,116.5C 156.182,114.656 157.349,112.823 158.5,111C 157.713,108.901 157.38,106.734 157.5,104.5C 159.467,104.739 161.301,104.406 163,103.5C 163.546,100.145 163.379,96.8121 162.5,93.5C 162.79,91.9559 163.456,90.6226 164.5,89.5C 163.449,86.243 162.782,82.9097 162.5,79.5C 160.61,79.7035 159.11,79.0368 158,77.5C 157.501,71.5092 157.334,65.5092 157.5,59.5C 156.167,59.5 154.833,59.5 153.5,59.5C 153.511,57.4534 153.844,55.4534 154.5,53.5C 154.278,51.9446 153.611,50.6113 152.5,49.5C 153.04,48.2519 153.707,47.0852 154.5,46C 152.963,44.8904 152.297,43.3904 152.5,41.5C 150.8,41.3739 149.3,40.7073 148,39.5C 147.228,39.6448 146.561,39.9781 146,40.5C 144.55,37.3584 142.05,35.6917 138.5,35.5C 138.709,34.914 139.043,34.414 139.5,34C 138.139,32.4157 137.472,30.5824 137.5,28.5C 134.126,28.3256 130.793,27.8256 127.5,27C 126.594,25.3005 126.261,23.4672 126.5,21.5C 124.5,21.5 122.5,21.5 120.5,21.5C 120.88,18.2084 119.547,15.8751 116.5,14.5C 117.44,11.9477 116.44,11.1144 113.5,12C 111.303,16.072 109.136,16.2386 107,12.5C 103.649,15.0408 101.815,14.0408 101.5,9.5C 98.0164,9.32763 95.0164,10.3276 92.5,12.5C 90.6726,10.949 88.506,9.94904 86,9.5C 83.1834,10.0305 80.35,10.3639 77.5,10.5C 76.839,4.51065 75.5056,4.01065 73.5,9C 72.552,9.48278 71.552,9.64945 70.5,9.5C 70.6495,8.44802 70.4828,7.44802 70,6.5C 69.0168,8.44841 67.8502,10.2817 66.5,12C 62.4471,13.0732 58.4471,13.4066 54.5,13C 53.1279,14.2419 52.1279,15.7419 51.5,17.5C 47.8077,19.019 44.1411,20.3523 40.5,21.5C 40.7015,25.6369 38.7015,27.9702 34.5,28.5C 32.8333,30.3333 31.1667,32.1667 29.5,34C 27.7445,34.1405 26.0778,33.6405 24.5,32.5C 22.5617,40.6017 20.395,48.6017 18,56.5C 15.8115,56.879 13.6449,58.0457 11.5,60C 12.1667,60.6667 12.8333,61.3333 13.5,62C 11.6234,64.126 10.6234,66.626 10.5,69.5C 9.32496,69.281 8.32496,69.6143 7.5,70.5C 10.4414,73.5431 10.1081,76.0431 6.5,78C 7.71849,79.4382 8.38515,81.1049 8.5,83C 6.77932,88.0195 6.11265,93.1862 6.5,98.5C 7.67504,98.281 8.67504,98.6143 9.5,99.5C 8.16667,100.833 8.16667,102.167 9.5,103.5C 10.9905,104.244 12.4905,104.91 14,105.5C 15.1201,115.196 13.4534,115.863 9,107.5C 8.8195,109.488 8.98617,111.488 9.5,113.5C 7.35235,110.597 5.85235,107.264 5,103.5C 4.50012,91.1712 4.33346,78.8378 4.5,66.5C 5.5,66.5 6.5,66.5 7.5,66.5C 7.5,63.5 7.5,60.5 7.5,57.5C 7.5,56.1667 7.5,54.8333 7.5,53.5C 9.16159,50.8798 10.8283,48.2132 12.5,45.5C 12.5,44.8333 12.5,44.1667 12.5,43.5C 15.0858,42.5134 16.4191,40.5134 16.5,37.5C 17.9063,37.0269 18.573,36.0269 18.5,34.5C 21.2195,32.7807 23.2195,30.4474 24.5,27.5C 25.1667,26.1667 26.1667,25.1667 27.5,24.5C 28.8333,23.8333 29.8333,22.8333 30.5,21.5C 33.4549,19.8777 36.1215,17.8777 38.5,15.5C 39.8734,15.6567 41.2068,15.49 42.5,15C 44.7039,13.2501 46.7039,11.4168 48.5,9.5C 50.0269,9.57298 51.0269,8.90632 51.5,7.5C 51.8333,7.5 52.1667,7.5 52.5,7.5C 54.1172,6.962 55.7839,6.62867 57.5,6.5C 59.4832,6.84316 60.8166,6.17649 61.5,4.5C 63.5648,4.48285 65.5648,4.14952 67.5,3.5C 78.8333,2.16667 90.1667,2.16667 101.5,3.5 Z"/>
    </g>
    <g>
    <path style="opacity:1" fill="#d0bc3c" d="M 61.5,4.5 C 60.8166,6.17649 59.4832,6.84316 57.5,6.5C 57.5,6.16667 57.5,5.83333 57.5,5.5C 58.5676,4.56552 59.901,4.23219 61.5,4.5 Z"/>
    </g>
    <g>
    <path style="opacity:1" fill="#fee430" d="M 146.5,141.5 C 145.425,140.438 144.425,140.438 143.5,141.5C 142.127,143.49 141.127,145.657 140.5,148C 137.881,148.151 135.547,148.985 133.5,150.5C 129.476,147.955 127.31,149.288 127,154.5C 125.282,155.85 123.448,157.017 121.5,158C 112.562,159.863 103.896,162.03 95.5,164.5C 95.5,165.5 95.5,166.5 95.5,167.5C 85.4316,167.777 75.4316,167.111 65.5,165.5C 64.9598,164.252 64.2931,163.085 63.5,162C 59.8865,161.064 56.2198,160.564 52.5,160.5C 52.7135,158.856 52.3802,157.356 51.5,156C 47.9137,154.892 44.247,154.392 40.5,154.5C 40.5,149.833 38.1667,147.5 33.5,147.5C 33.938,143.092 31.938,141.425 27.5,142.5C 27.5,140.5 27.5,138.5 27.5,136.5C 24.5,135.167 21.5,133.833 18.5,132.5C 16.8884,128.006 16.2217,123.339 16.5,118.5C 14.0532,118.385 12.0532,117.385 10.5,115.5C 10.1667,114.833 9.83333,114.167 9.5,113.5C 8.98617,111.488 8.8195,109.488 9,107.5C 13.4534,115.863 15.1201,115.196 14,105.5C 12.4905,104.91 10.9905,104.244 9.5,103.5C 8.16667,102.167 8.16667,100.833 9.5,99.5C 8.67504,98.6143 7.67504,98.281 6.5,98.5C 6.11265,93.1862 6.77932,88.0195 8.5,83C 8.38515,81.1049 7.71849,79.4382 6.5,78C 10.1081,76.0431 10.4414,73.5431 7.5,70.5C 8.32496,69.6143 9.32496,69.281 10.5,69.5C 10.6234,66.626 11.6234,64.126 13.5,62C 12.8333,61.3333 12.1667,60.6667 11.5,60C 13.6449,58.0457 15.8115,56.879 18,56.5C 20.395,48.6017 22.5617,40.6017 24.5,32.5C 26.0778,33.6405 27.7445,34.1405 29.5,34C 31.1667,32.1667 32.8333,30.3333 34.5,28.5C 38.7015,27.9702 40.7015,25.6369 40.5,21.5C 44.1411,20.3523 47.8077,19.019 51.5,17.5C 52.1279,15.7419 53.1279,14.2419 54.5,13C 58.4471,13.4066 62.4471,13.0732 66.5,12C 67.8502,10.2817 69.0168,8.44841 70,6.5C 70.4828,7.44802 70.6495,8.44802 70.5,9.5C 71.552,9.64945 72.552,9.48278 73.5,9C 75.5056,4.01065 76.839,4.51065 77.5,10.5C 80.35,10.3639 83.1834,10.0305 86,9.5C 88.506,9.94904 90.6726,10.949 92.5,12.5C 95.0164,10.3276 98.0164,9.32763 101.5,9.5C 101.815,14.0408 103.649,15.0408 107,12.5C 109.136,16.2386 111.303,16.072 113.5,12C 116.44,11.1144 117.44,11.9477 116.5,14.5C 119.547,15.8751 120.88,18.2084 120.5,21.5C 122.5,21.5 124.5,21.5 126.5,21.5C 126.261,23.4672 126.594,25.3005 127.5,27C 130.793,27.8256 134.126,28.3256 137.5,28.5C 137.472,30.5824 138.139,32.4157 139.5,34C 139.043,34.414 138.709,34.914 138.5,35.5C 142.05,35.6917 144.55,37.3584 146,40.5C 146.561,39.9781 147.228,39.6448 148,39.5C 149.3,40.7073 150.8,41.3739 152.5,41.5C 152.297,43.3904 152.963,44.8904 154.5,46C 153.707,47.0852 153.04,48.2519 152.5,49.5C 153.611,50.6113 154.278,51.9446 154.5,53.5C 153.844,55.4534 153.511,57.4534 153.5,59.5C 154.833,59.5 156.167,59.5 157.5,59.5C 157.334,65.5092 157.501,71.5092 158,77.5C 159.11,79.0368 160.61,79.7035 162.5,79.5C 162.782,82.9097 163.449,86.243 164.5,89.5C 163.456,90.6226 162.79,91.9559 162.5,93.5C 163.379,96.8121 163.546,100.145 163,103.5C 161.301,104.406 159.467,104.739 157.5,104.5C 157.38,106.734 157.713,108.901 158.5,111C 157.349,112.823 156.182,114.656 155,116.5C 154.845,118.856 154.845,121.189 155,123.5C 154.346,122.304 153.846,122.304 153.5,123.5C 154.025,124.192 154.692,124.692 155.5,125C 154.333,126.833 153.167,128.667 152,130.5C 151,129.167 150,129.167 149,130.5C 148.974,134.483 148.14,138.15 146.5,141.5 Z"/>
    </g>
    <g>
    <path style="opacity:1" fill="#b4a131" d="M 109.5,4.5 C 111.403,4.79586 113.07,5.46253 114.5,6.5C 112.219,6.92271 110.552,6.25605 109.5,4.5 Z"/>
    </g>
    <g>
    <path style="opacity:1" fill="#8d7f20" d="M 53.5,5.5 C 54.8333,5.5 56.1667,5.5 57.5,5.5C 57.5,5.83333 57.5,6.16667 57.5,6.5C 55.7839,6.62867 54.1172,6.962 52.5,7.5C 52.8333,6.83333 53.1667,6.16667 53.5,5.5 Z"/></g>
    <g><path style="opacity:1" fill="#9c8c2a" d="M 51.5,7.5 C 51.0269,8.90632 50.0269,9.57298 48.5,9.5C 48.9731,8.09368 49.9731,7.42702 51.5,7.5 Z"/></g>
    <g><path style="opacity:0.904" fill="#fefffe" d="M 452.5,8.5 C 463.5,8.5 474.5,8.5 485.5,8.5C 485.5,20.5 485.5,32.5 485.5,44.5C 474.5,44.5 463.5,44.5 452.5,44.5C 452.5,32.5 452.5,20.5 452.5,8.5 Z"/></g>
    <g><path style="opacity:1" fill="#7e741c" d="M 120.5,8.5 C 121.167,8.5 121.833,8.5 122.5,8.5C 122.833,9.16667 123.167,9.83333 123.5,10.5C 121.973,10.573 120.973,9.90632 120.5,8.5 Z"/></g>
    <g><path style="opacity:0.961" fill="#fefffe" d="M 304.5,10.5 C 317.833,10.5 331.167,10.5 344.5,10.5C 370.664,98.1594 397.331,185.659 424.5,273C 413.505,273.5 402.505,273.667 391.5,273.5C 384.91,249.395 377.91,225.395 370.5,201.5C 339.172,200.333 307.839,200.167 276.5,201C 269.261,224.782 262.095,248.615 255,272.5C 244.916,273.486 234.749,273.819 224.5,273.5C 250.768,185.698 277.434,98.0314 304.5,10.5 Z M 322.5,45.5 C 323.931,45.8807 324.764,46.8807 325,48.5C 337.305,88.7228 349.138,129.056 360.5,169.5C 335.498,169.667 310.498,169.5 285.5,169C 298.219,127.957 310.553,86.7905 322.5,45.5 Z"/></g>
    <g><path style="opacity:1" fill="#9e902b" d="M 123.5,10.5 C 125.027,10.427 126.027,11.0937 126.5,12.5C 124.973,12.573 123.973,11.9063 123.5,10.5 Z"/></g>
    <g><path style="opacity:0.808" fill="#3f360e" d="M 53.5,5.5 C 53.1667,6.16667 52.8333,6.83333 52.5,7.5C 52.1667,7.5 51.8333,7.5 51.5,7.5C 49.9731,7.42702 48.9731,8.09368 48.5,9.5C 44.4945,10.4977 41.1612,12.4977 38.5,15.5C 34.9796,16.3528 32.3129,18.3528 30.5,21.5C 28.5,21.5 27.5,22.5 27.5,24.5C 26.1667,25.1667 25.1667,26.1667 24.5,27.5C 21.8103,29.1935 19.8103,31.5268 18.5,34.5C 17.0937,34.9731 16.427,35.9731 16.5,37.5C 14.1782,38.8021 12.8449,40.8021 12.5,43.5C 11.0937,43.9731 10.427,44.9731 10.5,46.5C 8.9255,48.5475 7.9255,50.8808 7.5,53.5C 4.86048,58.085 3.19382,63.085 2.5,68.5C 0.249865,79.4264 -0.0834687,90.4264 1.5,101.5C 1.40953,104.152 2.07619,106.485 3.5,108.5C 4.48124,111.421 5.31458,114.421 6,117.5C 6.38258,118.056 6.88258,118.389 7.5,118.5C 7.62867,120.216 7.962,121.883 8.5,123.5C 8.42702,125.027 9.09368,126.027 10.5,126.5C 10.7549,128.967 11.7549,130.967 13.5,132.5C 14.4013,133.29 15.0679,134.29 15.5,135.5C 17.2672,137.938 18.6006,140.605 19.5,143.5C 19.427,145.027 20.0937,146.027 21.5,146.5C 21.5,146.833 21.5,147.167 21.5,147.5C 21.5,148.167 21.5,148.833 21.5,149.5C 11.1909,135.216 3.8576,119.549 -0.5,102.5C -0.5,92.1667 -0.5,81.8333 -0.5,71.5C 5.39101,44.1089 20.391,23.2755 44.5,9C 47.3271,7.33639 50.3271,6.16972 53.5,5.5 Z"/></g>
    <g><path style="opacity:1" fill="#efd638" d="M 104.5,4.5 C 105.833,4.5 107.167,4.5 108.5,4.5C 108.833,4.5 109.167,4.5 109.5,4.5C 110.552,6.25605 112.219,6.92271 114.5,6.5C 116.5,7.16667 118.5,7.83333 120.5,8.5C 120.973,9.90632 121.973,10.573 123.5,10.5C 123.973,11.9063 124.973,12.573 126.5,12.5C 129.135,13.8109 131.469,15.4776 133.5,17.5C 131.199,16.9396 128.866,16.4396 126.5,16C 120.111,11.6712 113.111,8.50456 105.5,6.5C 105.137,5.81654 104.804,5.14987 104.5,4.5 Z"/></g>
    <g><path style="opacity:1" fill="#d6c33a" d="M 48.5,9.5 C 46.7039,11.4168 44.7039,13.2501 42.5,15C 41.2068,15.49 39.8734,15.6567 38.5,15.5C 41.1612,12.4977 44.4945,10.4977 48.5,9.5 Z"/></g>
    <g><path style="opacity:1" fill="#b09f30" d="M 38.5,15.5 C 36.1215,17.8777 33.4549,19.8777 30.5,21.5C 32.3129,18.3528 34.9796,16.3528 38.5,15.5 Z"/></g>
    <g><path style="opacity:0.843" fill="#433c0f" d="M 122.5,8.5 C 140.948,17.615 154.281,31.615 162.5,50.5C 161.833,50.1667 161.167,49.8333 160.5,49.5C 159.89,47.5659 158.89,45.8993 157.5,44.5C 155.662,39.3346 152.662,35.0013 148.5,31.5C 148.573,29.9731 147.906,28.9731 146.5,28.5C 143.072,23.7363 138.738,20.0696 133.5,17.5C 131.469,15.4776 129.135,13.8109 126.5,12.5C 126.027,11.0937 125.027,10.427 123.5,10.5C 123.167,9.83333 122.833,9.16667 122.5,8.5 Z"/></g>
    <g><path style="opacity:1" fill="#9e8c2a" d="M 30.5,21.5 C 29.8333,22.8333 28.8333,23.8333 27.5,24.5C 27.5,22.5 28.5,21.5 30.5,21.5 Z"/></g>
    <g><path style="opacity:1" fill="#feea32" d="M 77.5,22.5 C 85.6288,23.2771 93.6288,24.2771 101.5,25.5C 101.5,26.8333 101.5,28.1667 101.5,29.5C 105.833,30.1667 110.167,30.8333 114.5,31.5C 114.5,32.5 114.5,33.5 114.5,34.5C 119.795,36.543 125.461,37.7097 131.5,38C 133.007,39.4733 133.674,41.3066 133.5,43.5C 133.076,45.8704 132.909,48.2037 133,50.5C 135.341,52.5215 137.841,54.1881 140.5,55.5C 142.045,56.4519 143.712,56.7852 145.5,56.5C 145.878,58.6463 146.212,60.813 146.5,63C 145.727,77.1504 145.227,91.3171 145,105.5C 144.713,110.696 142.379,114.696 138,117.5C 135.848,121.064 133.848,124.731 132,128.5C 128.833,129.667 126.667,131.833 125.5,135C 126.78,137.132 126.78,139.298 125.5,141.5C 121.893,142.489 118.226,142.823 114.5,142.5C 114.714,144.144 114.38,145.644 113.5,147C 98.0534,149.968 82.3867,151.635 66.5,152C 64.6277,149.056 61.961,147.889 58.5,148.5C 58.5,146.833 58.5,145.167 58.5,143.5C 52.7195,142.677 47.0529,141.344 41.5,139.5C 38.7163,132.582 35.883,125.582 33,118.5C 31.8904,116.963 30.3904,116.297 28.5,116.5C 28.6713,113.203 28.0046,112.869 26.5,115.5C 25.914,115.291 25.414,114.957 25,114.5C 24.3691,111.607 23.5358,108.774 22.5,106C 22.7591,104.739 23.4258,103.739 24.5,103C 23.703,99.2546 23.203,95.4213 23,91.5C 19.4512,86.8855 19.7846,82.5521 24,78.5C 24.4995,72.1754 24.6662,65.8421 24.5,59.5C 25.5,59.5 26.5,59.5 27.5,59.5C 27.5,53.5 30.5,50.5 36.5,50.5C 38.568,47.9735 39.9013,44.9735 40.5,41.5C 44.1923,39.9805 47.859,38.6472 51.5,37.5C 51.2606,35.5328 51.5939,33.6995 52.5,32C 56.993,30.0369 61.6596,28.2035 66.5,26.5C 69.4465,25.6786 72.4465,25.1786 75.5,25C 76.3805,24.2917 77.0472,23.4584 77.5,22.5 Z"/></g>
    <g><path style="opacity:1" fill="#a89a2c" d="M 146.5,28.5 C 147.906,28.9731 148.573,29.9731 148.5,31.5C 147.094,31.0269 146.427,30.0269 146.5,28.5 Z"/></g>
    <g><path style="opacity:1" fill="#b0a231" d="M 24.5,27.5 C 23.2195,30.4474 21.2195,32.7807 18.5,34.5C 19.8103,31.5268 21.8103,29.1935 24.5,27.5 Z"/></g>
    <g><path style="opacity:1" fill="#feef35" d="M 76.5,34.5 C 83.175,34.3337 89.8417,34.5004 96.5,35C 101.804,37.7445 107.47,39.4111 113.5,40C 113.594,41.4222 113.928,42.9222 114.5,44.5C 119.248,47.0786 123.581,50.2453 127.5,54C 127.043,54.414 126.709,54.914 126.5,55.5C 128.39,59.3439 130.556,63.0106 133,66.5C 136.988,82.7899 136.321,98.7899 131,114.5C 127.502,117.001 125.169,120.335 124,124.5C 121.87,127.23 119.203,129.23 116,130.5C 114.991,132.025 114.491,133.692 114.5,135.5C 106.747,135.81 99.4132,137.643 92.5,141C 87.5,141.667 82.5,141.667 77.5,141C 73.1854,138.451 68.5187,137.118 63.5,137C 60.9561,134.907 57.9561,133.907 54.5,134C 53.3333,130.833 52.1667,127.667 51,124.5C 48.595,123.726 46.095,123.226 43.5,123C 38.979,116.807 35.8123,109.974 34,102.5C 33.5003,90.4919 33.667,78.4919 34.5,66.5C 36.1439,66.7135 37.6439,66.3802 39,65.5C 39.6417,61.5092 40.1417,57.5092 40.5,53.5C 45.1606,54.1679 47.1606,52.1679 46.5,47.5C 48.5,47.5 50.5,47.5 52.5,47.5C 52.5,45.5 52.5,43.5 52.5,41.5C 55.9099,41.5429 59.2432,41.0429 62.5,40C 63.7433,38.8455 64.7433,37.5122 65.5,36C 69.3563,35.8227 73.023,35.3227 76.5,34.5 Z"/></g>
    <g><path style="opacity:1" fill="#afa032" d="M 18.5,34.5 C 18.573,36.0269 17.9063,37.0269 16.5,37.5C 16.427,35.9731 17.0937,34.9731 18.5,34.5 Z"/></g>
    <g><path style="opacity:1" fill="#d8c538" d="M 133.5,17.5 C 138.738,20.0696 143.072,23.7363 146.5,28.5C 146.427,30.0269 147.094,31.0269 148.5,31.5C 152.662,35.0013 155.662,39.3346 157.5,44.5C 155.245,43.3524 153.412,41.6857 152,39.5C 147.647,34.4734 143.647,29.14 140,23.5C 138.22,22.4063 136.386,21.4063 134.5,20.5C 133.873,19.5832 133.539,18.5832 133.5,17.5 Z"/></g>
    <g><path style="opacity:1" fill="#c2b131" d="M 16.5,37.5 C 16.4191,40.5134 15.0858,42.5134 12.5,43.5C 12.8449,40.8021 14.1782,38.8021 16.5,37.5 Z"/></g>
    <g><path style="opacity:1" fill="#8f832b" d="M 12.5,43.5 C 12.5,44.1667 12.5,44.8333 12.5,45.5C 11.8333,45.8333 11.1667,46.1667 10.5,46.5C 10.427,44.9731 11.0937,43.9731 12.5,43.5 Z"/></g>
    <g><path style="opacity:1" fill="#fef13b" d="M 77.5,45.5 C 89.2025,44.0209 99.8692,46.5209 109.5,53C 117.363,60.3753 123.03,69.2087 126.5,79.5C 125.708,85.449 125.208,91.449 125,97.5C 122.343,102.475 120.676,107.808 120,113.5C 119.667,112.833 119.333,112.167 119,111.5C 117.262,115.241 114.762,118.408 111.5,121C 95.7932,131.177 79.4599,132.177 62.5,124C 55.3928,118.001 49.5595,110.834 45,102.5C 44.7743,94.1385 44.2743,85.8052 43.5,77.5C 45.4962,74.4973 46.6628,71.164 47,67.5C 50.465,65.0229 52.7984,61.6896 54,57.5C 55.1667,56.3333 56.3333,55.1667 57.5,54C 64.1223,50.8439 70.789,48.0106 77.5,45.5 Z"/></g>
    <g><path style="opacity:1" fill="#c6b239" d="M 157.5,44.5 C 158.89,45.8993 159.89,47.5659 160.5,49.5C 160.5,50.1667 160.5,50.8333 160.5,51.5C 158.706,49.5718 157.706,47.2384 157.5,44.5 Z"/></g>
    <g><path style="opacity:1" fill="#fef143" d="M 79.5,48.5 C 86.195,49.0097 92.8617,49.8431 99.5,51C 104.621,54.4527 109.454,58.2861 114,62.5C 118.305,69.5758 121.138,77.2424 122.5,85.5C 122.203,94.0223 120.036,102.022 116,109.5C 104.991,125.221 90.1574,130.054 71.5,124C 64.2706,121.303 58.4373,116.803 54,110.5C 51.6771,106.33 49.6771,101.996 48,97.5C 46.0787,86.7985 47.7454,76.7985 53,67.5C 55.3157,65.5296 57.1491,63.1963 58.5,60.5C 59.325,59.6143 60.325,59.281 61.5,59.5C 61.33,58.1779 61.6634,57.0113 62.5,56C 68.0261,52.9985 73.6928,50.4985 79.5,48.5 Z"/></g>
    <g><path style="opacity:1" fill="#b8a632" d="M 12.5,45.5 C 10.8283,48.2132 9.16159,50.8798 7.5,53.5C 7.9255,50.8808 8.9255,48.5475 10.5,46.5C 11.1667,46.1667 11.8333,45.8333 12.5,45.5 Z"/></g>
    <g><path style="opacity:0.988" fill="#6b5d1a" d="M 160.5,49.5 C 161.167,49.8333 161.833,50.1667 162.5,50.5C 162.5,51.1667 162.5,51.8333 162.5,52.5C 161.833,52.1667 161.167,51.8333 160.5,51.5C 160.5,50.8333 160.5,50.1667 160.5,49.5 Z"/></g>
    <g><path style="opacity:1" fill="#bfa931" d="M 160.5,51.5 C 161.167,51.8333 161.833,52.1667 162.5,52.5C 162.629,54.2161 162.962,55.8828 163.5,57.5C 163.167,57.5 162.833,57.5 162.5,57.5C 161.637,55.5786 160.971,53.5786 160.5,51.5 Z"/></g>
    <g><path style="opacity:1" fill="#9e8f28" d="M 7.5,53.5 C 7.5,54.8333 7.5,56.1667 7.5,57.5C 5.39867,60.7966 4.06533,64.4632 3.5,68.5C 3.16667,68.5 2.83333,68.5 2.5,68.5C 3.19382,63.085 4.86048,58.085 7.5,53.5 Z"/></g>
    <g><path style="opacity:1" fill="#fef24d" d="M 78.5,55.5 C 98.5647,54.1069 111.065,63.1069 116,82.5C 116.953,101.224 108.619,113.89 91,120.5C 62.7623,119.92 50.7623,105.587 55,77.5C 59.8112,66.853 67.6445,59.5196 78.5,55.5 Z"/></g>
    <g><path style="opacity:1" fill="#a4952b" d="M 163.5,57.5 C 166.548,62.3068 167.882,67.6401 167.5,73.5C 166.005,68.3209 164.671,62.9876 163.5,57.5 Z"/></g>
    <g><path style="opacity:1" fill="#f2d83d" d="M 162.5,57.5 C 162.833,57.5 163.167,57.5 163.5,57.5C 164.671,62.9876 166.005,68.3209 167.5,73.5C 167.826,81.6841 167.492,89.6841 166.5,97.5C 166.666,91.1579 166.5,84.8246 166,78.5C 164.778,71.4835 163.611,64.4835 162.5,57.5 Z"/></g>
    <g><path style="opacity:0.964" fill="#fefffe" d="M 778.5,127.5 C 778.5,176.167 778.5,224.833 778.5,273.5C 769.167,273.5 759.833,273.5 750.5,273.5C 750.667,231.832 750.5,190.165 750,148.5C 750.132,137.085 748.132,126.085 744,115.5C 737.914,106.542 729.414,102.542 718.5,103.5C 710.693,103.379 703.359,105.212 696.5,109C 687.766,114.398 679.6,120.565 672,127.5C 672.476,176.133 672.643,224.799 672.5,273.5C 662.833,273.5 653.167,273.5 643.5,273.5C 643.95,225.478 643.45,177.478 642,129.5C 640.016,111.512 630.016,102.846 612,103.5C 602.741,103.364 594.241,105.864 586.5,111C 579.424,115.406 572.924,120.572 567,126.5C 566.5,175.499 566.333,224.499 566.5,273.5C 556.833,273.5 547.167,273.5 537.5,273.5C 537.5,207.833 537.5,142.167 537.5,76.5C 547.167,76.5 556.833,76.5 566.5,76.5C 566.334,83.175 566.5,89.8417 567,96.5C 576.386,86.8918 587.22,79.3918 599.5,74C 629.39,64.8704 651.557,74.0371 666,101.5C 675.143,91.5208 685.643,83.3541 697.5,77C 744.863,61.1988 771.863,78.0322 778.5,127.5 Z"/></g>
    <g><path style="opacity:1" fill="#f6db38" d="M 7.5,57.5 C 7.5,60.5 7.5,63.5 7.5,66.5C 6.5,66.5 5.5,66.5 4.5,66.5C 4.33346,78.8378 4.50012,91.1712 5,103.5C 5.85235,107.264 7.35235,110.597 9.5,113.5C 9.83333,114.167 10.1667,114.833 10.5,115.5C 9.61197,118.054 9.27863,120.721 9.5,123.5C 9.16667,123.5 8.83333,123.5 8.5,123.5C 7.962,121.883 7.62867,120.216 7.5,118.5C 6.67123,115.185 5.8379,111.852 5,108.5C 4.61742,107.944 4.11742,107.611 3.5,107.5C 3.5,106.5 3.5,105.5 3.5,104.5C 2.19824,92.5018 2.19824,80.5018 3.5,68.5C 4.06533,64.4632 5.39867,60.7966 7.5,57.5 Z"/></g>
    <g><path style="opacity:1" fill="#fef256" d="M 78.5,58.5 C 86.3648,58.3664 94.0315,59.533 101.5,62C 102.781,64.4033 104.614,66.2367 107,67.5C 107.892,70.9518 109.558,73.9518 112,76.5C 113.397,83.4516 113.73,90.4516 113,97.5C 110.173,100.329 108.173,103.663 107,107.5C 93.9749,119.317 80.1415,120.484 65.5,111C 55.9878,99.6815 53.8211,87.1815 59,73.5C 63.9811,66.4371 70.4811,61.4371 78.5,58.5 Z"/></g>
    <g><path style="opacity:0.954" fill="#fefffe" d="M 454.5,76.5 C 464.167,76.5 473.833,76.5 483.5,76.5C 483.5,142.167 483.5,207.833 483.5,273.5C 473.833,273.5 464.167,273.5 454.5,273.5C 454.5,207.833 454.5,142.167 454.5,76.5 Z"/></g>
    <g><path style="opacity:1" fill="#cebb3d" d="M 2.5,68.5 C 2.83333,68.5 3.16667,68.5 3.5,68.5C 2.19824,80.5018 2.19824,92.5018 3.5,104.5C 2.83333,103.5 2.16667,102.5 1.5,101.5C -0.0834687,90.4264 0.249865,79.4264 2.5,68.5 Z"/></g>
    <g><path style="opacity:1" fill="#c6b43d" d="M 167.5,73.5 C 168.166,77.6533 168.499,81.9866 168.5,86.5C 168.706,92.7485 168.04,98.7485 166.5,104.5C 166.5,102.167 166.5,99.8333 166.5,97.5C 167.492,89.6841 167.826,81.6841 167.5,73.5 Z"/></g>
    <g><path style="opacity:0.531" fill="#41380e" d="M 162.5,50.5 C 166.269,57.98 168.769,65.98 170,74.5C 173.074,98.5395 167.574,120.206 153.5,139.5C 153.5,138.833 153.5,138.167 153.5,137.5C 154.441,135.95 155.107,134.284 155.5,132.5C 156.906,132.027 157.573,131.027 157.5,129.5C 159.293,127.574 160.293,125.241 160.5,122.5C 161.906,122.027 162.573,121.027 162.5,119.5C 162.833,118.167 163.167,116.833 163.5,115.5C 164.871,113.064 165.871,110.397 166.5,107.5C 166.5,106.5 166.5,105.5 166.5,104.5C 168.04,98.7485 168.706,92.7485 168.5,86.5C 168.499,81.9866 168.166,77.6533 167.5,73.5C 167.882,67.6401 166.548,62.3068 163.5,57.5C 162.962,55.8828 162.629,54.2161 162.5,52.5C 162.5,51.8333 162.5,51.1667 162.5,50.5 Z"/></g>
    <g><path style="opacity:1" fill="#fef364" d="M 77.5,62.5 C 101.79,61.9528 111.957,73.6194 108,97.5C 106.545,100.912 104.712,104.079 102.5,107C 93.675,112.171 84.3417,113.504 74.5,111C 66.1796,107.206 61.6796,100.706 61,91.5C 59.9091,85.9031 60.5758,80.5698 63,75.5C 67.4577,70.5312 72.291,66.1978 77.5,62.5 Z"/></g>
    <g><path style="opacity:1" fill="#fef371" d="M 81.5,66.5 C 87.1281,65.4532 91.7948,66.9532 95.5,71C 98.9735,71.5883 101.474,73.4216 103,76.5C 109.656,97.4756 102.156,107.976 80.5,108C 72.1157,106.616 66.949,101.783 65,93.5C 63.9016,87.1525 64.9016,81.1525 68,75.5C 72.4255,72.2144 76.9255,69.2144 81.5,66.5 Z"/></g>
    <g><path style="opacity:1" fill="#fef47b" d="M 78.5,71.5 C 94.7713,69.9384 102.271,77.2717 101,93.5C 95.5585,104.232 87.2252,107.232 76,102.5C 64.5351,91.3458 65.3684,81.0125 78.5,71.5 Z"/></g>
    <g><path style="opacity:1" fill="#fef58b" d="M 83.5,74.5 C 94.711,76.2641 98.8777,82.5975 96,93.5C 88.5398,101.276 81.2065,101.276 74,93.5C 73.077,91.9656 72.577,90.299 72.5,88.5C 73.6025,84.2913 75.2692,80.2913 77.5,76.5C 79.6309,75.8313 81.6309,75.1646 83.5,74.5 Z"/></g>
    <g><path style="opacity:1" fill="#fef69d" d="M 82.5,81.5 C 86.4896,80.6155 89.3229,81.9489 91,85.5C 92.1918,91.2736 89.8585,94.2736 84,94.5C 78.9244,93.6534 76.9244,90.6534 78,85.5C 79.2499,83.8065 80.7499,82.4732 82.5,81.5 Z"/></g>
    <g><path style="opacity:1" fill="#7c6e1c" d="M 1.5,101.5 C 2.16667,102.5 2.83333,103.5 3.5,104.5C 3.5,105.5 3.5,106.5 3.5,107.5C 3.5,107.833 3.5,108.167 3.5,108.5C 2.07619,106.485 1.40953,104.152 1.5,101.5 Z"/></g>
    <g><path style="opacity:1" fill="#b5a333" d="M 166.5,107.5 C 165.871,110.397 164.871,113.064 163.5,115.5C 163.674,113.139 164.007,110.806 164.5,108.5C 165.167,108.167 165.833,107.833 166.5,107.5 Z"/></g>
    <g><path style="opacity:1" fill="#c5b335" d="M 3.5,107.5 C 4.11742,107.611 4.61742,107.944 5,108.5C 5.8379,111.852 6.67123,115.185 7.5,118.5C 6.88258,118.389 6.38258,118.056 6,117.5C 5.31458,114.421 4.48124,111.421 3.5,108.5C 3.5,108.167 3.5,107.833 3.5,107.5 Z"/></g>
    <g><path style="opacity:1" fill="#fddd2f" d="M 10.5,115.5 C 12.0532,117.385 14.0532,118.385 16.5,118.5C 16.2217,123.339 16.8884,128.006 18.5,132.5C 21.5,133.833 24.5,135.167 27.5,136.5C 27.5,138.5 27.5,140.5 27.5,142.5C 31.938,141.425 33.938,143.092 33.5,147.5C 38.1667,147.5 40.5,149.833 40.5,154.5C 44.247,154.392 47.9137,154.892 51.5,156C 52.3802,157.356 52.7135,158.856 52.5,160.5C 56.2198,160.564 59.8865,161.064 63.5,162C 64.2931,163.085 64.9598,164.252 65.5,165.5C 75.4316,167.111 85.4316,167.777 95.5,167.5C 95.5,166.5 95.5,165.5 95.5,164.5C 103.896,162.03 112.562,159.863 121.5,158C 123.448,157.017 125.282,155.85 127,154.5C 127.31,149.288 129.476,147.955 133.5,150.5C 135.547,148.985 137.881,148.151 140.5,148C 141.127,145.657 142.127,143.49 143.5,141.5C 144.425,140.438 145.425,140.438 146.5,141.5C 146.307,144.308 145.64,146.975 144.5,149.5C 144.5,150.167 144.5,150.833 144.5,151.5C 143.5,151.5 142.5,151.5 141.5,151.5C 141.673,154.983 140.673,157.983 138.5,160.5C 138.038,159.12 137.038,158.453 135.5,158.5C 133.747,160.7 131.414,161.867 128.5,162C 127.009,164.097 126.009,166.43 125.5,169C 121.833,169.333 118.167,169.667 114.5,170C 116.891,171.309 116.891,172.309 114.5,173C 106.022,173.87 97.522,174.37 89,174.5C 81.2877,173.929 73.621,173.929 66,174.5C 61.4986,173.916 56.9986,173.249 52.5,172.5C 52.0234,171.069 51.3567,169.736 50.5,168.5C 47.1696,167.906 43.8363,167.24 40.5,166.5C 39.6906,164.929 39.3573,163.262 39.5,161.5C 38.5,161.5 37.5,161.5 36.5,161.5C 36.6495,162.552 36.4828,163.552 36,164.5C 34.9609,163.29 33.7942,162.29 32.5,161.5C 30.0584,158.271 27.3918,155.271 24.5,152.5C 24.5,152.167 24.5,151.833 24.5,151.5C 24.4431,150.391 24.1098,149.391 23.5,148.5C 23.5,146.5 23.5,144.5 23.5,142.5C 22.5,142.5 21.5,142.5 20.5,142.5C 20.7372,138.684 19.0706,136.351 15.5,135.5C 15.0679,134.29 14.4013,133.29 13.5,132.5C 13.2451,130.033 12.2451,128.033 10.5,126.5C 10.4431,125.391 10.1098,124.391 9.5,123.5C 9.27863,120.721 9.61197,118.054 10.5,115.5 Z"/></g>
    <g><path style="opacity:1" fill="#a99a32" d="M 162.5,119.5 C 162.573,121.027 161.906,122.027 160.5,122.5C 160.427,120.973 161.094,119.973 162.5,119.5 Z"/></g>
    <g><path style="opacity:1" fill="#897920" d="M 8.5,123.5 C 8.83333,123.5 9.16667,123.5 9.5,123.5C 10.1098,124.391 10.4431,125.391 10.5,126.5C 9.09368,126.027 8.42702,125.027 8.5,123.5 Z"/></g>
    <g><path style="opacity:1" fill="#e4cc38" d="M 164.5,108.5 C 164.007,110.806 163.674,113.139 163.5,115.5C 163.167,116.833 162.833,118.167 162.5,119.5C 161.094,119.973 160.427,120.973 160.5,122.5C 160.293,125.241 159.293,127.574 157.5,129.5C 156.094,129.973 155.427,130.973 155.5,132.5C 155.107,134.284 154.441,135.95 153.5,137.5C 152.094,137.973 151.427,138.973 151.5,140.5C 151.672,141.492 151.338,142.158 150.5,142.5C 148.5,144.833 146.5,147.167 144.5,149.5C 145.64,146.975 146.307,144.308 146.5,141.5C 147.5,141.5 148.5,141.5 149.5,141.5C 149.5,139.833 149.5,138.167 149.5,136.5C 150.822,136.67 151.989,136.337 153,135.5C 153.333,133.5 153.667,131.5 154,129.5C 157.399,125.669 160.065,121.335 162,116.5C 162.098,113.478 162.932,110.811 164.5,108.5 Z"/></g>
    <g><path style="opacity:0.992" fill="#8a7e25" d="M 10.5,126.5 C 12.2451,128.033 13.2451,130.033 13.5,132.5C 11.7549,130.967 10.7549,128.967 10.5,126.5 Z"/></g>
    <g><path style="opacity:1" fill="#aa9a2d" d="M 157.5,129.5 C 157.573,131.027 156.906,132.027 155.5,132.5C 155.427,130.973 156.094,129.973 157.5,129.5 Z"/></g>
    <g><path style="opacity:1" fill="#e6cf39" d="M 15.5,135.5 C 19.0706,136.351 20.7372,138.684 20.5,142.5C 21.5,142.5 22.5,142.5 23.5,142.5C 23.5,144.5 23.5,146.5 23.5,148.5C 22.8333,148.167 22.1667,147.833 21.5,147.5C 21.5,147.167 21.5,146.833 21.5,146.5C 21.573,144.973 20.9063,143.973 19.5,143.5C 18.6006,140.605 17.2672,137.938 15.5,135.5 Z"/></g>
    <g><path style="opacity:1" fill="#807221" d="M 153.5,137.5 C 153.5,138.167 153.5,138.833 153.5,139.5C 152.833,139.833 152.167,140.167 151.5,140.5C 151.427,138.973 152.094,137.973 153.5,137.5 Z"/></g>
    <g><path style="opacity:0.996" fill="#827623" d="M 19.5,143.5 C 20.9063,143.973 21.573,144.973 21.5,146.5C 20.0937,146.027 19.427,145.027 19.5,143.5 Z"/></g>
    <g><path style="opacity:0.02" fill="#39310c" d="M 153.5,139.5 C 149.07,149.358 144.403,159.025 139.5,168.5C 139.629,166.784 139.962,165.117 140.5,163.5C 140.5,162.833 140.5,162.167 140.5,161.5C 141.906,161.027 142.573,160.027 142.5,158.5C 142.833,157.167 143.167,155.833 143.5,154.5C 146.623,151.024 148.957,147.024 150.5,142.5C 151.338,142.158 151.672,141.492 151.5,140.5C 152.167,140.167 152.833,139.833 153.5,139.5 Z"/></g>
    <g><path style="opacity:1" fill="#817721" d="M 21.5,147.5 C 22.1667,147.833 22.8333,148.167 23.5,148.5C 24.1098,149.391 24.4431,150.391 24.5,151.5C 23.5,150.833 22.5,150.167 21.5,149.5C 21.5,148.833 21.5,148.167 21.5,147.5 Z"/></g>
    <g><path style="opacity:1" fill="#a29129" d="M 150.5,142.5 C 148.957,147.024 146.623,151.024 143.5,154.5C 143.557,153.391 143.89,152.391 144.5,151.5C 144.5,150.833 144.5,150.167 144.5,149.5C 146.5,147.167 148.5,144.833 150.5,142.5 Z"/></g>
    <g><path style="opacity:1" fill="#fdd72e" d="M 138.5,160.5 C 135.783,165.379 133.617,170.712 132,176.5C 130.919,183.224 129.752,189.891 128.5,196.5C 127.99,199.539 127.323,202.539 126.5,205.5C 98.8253,205.833 71.1586,205.5 43.5,204.5C 41.6208,196.281 39.7875,187.947 38,179.5C 37.5831,178.244 36.7498,177.577 35.5,177.5C 34.8505,175.565 34.5172,173.565 34.5,171.5C 32.9767,168.365 32.31,165.032 32.5,161.5C 33.7942,162.29 34.9609,163.29 36,164.5C 36.4828,163.552 36.6495,162.552 36.5,161.5C 37.5,161.5 38.5,161.5 39.5,161.5C 39.3573,163.262 39.6906,164.929 40.5,166.5C 43.8363,167.24 47.1696,167.906 50.5,168.5C 51.3567,169.736 52.0234,171.069 52.5,172.5C 56.9986,173.249 61.4986,173.916 66,174.5C 73.621,173.929 81.2877,173.929 89,174.5C 97.522,174.37 106.022,173.87 114.5,173C 116.891,172.309 116.891,171.309 114.5,170C 118.167,169.667 121.833,169.333 125.5,169C 126.009,166.43 127.009,164.097 128.5,162C 131.414,161.867 133.747,160.7 135.5,158.5C 137.038,158.453 138.038,159.12 138.5,160.5 Z"/></g>
    <g><path style="opacity:0.216" fill="#38300d" d="M 21.5,149.5 C 22.5,150.167 23.5,150.833 24.5,151.5C 24.5,151.833 24.5,152.167 24.5,152.5C 25.758,154.687 26.758,157.02 27.5,159.5C 27.7497,161.674 28.7497,163.341 30.5,164.5C 31.1667,166.5 31.8333,168.5 32.5,170.5C 32.7587,173.272 33.7587,175.605 35.5,177.5C 35.5,178.167 35.5,178.833 35.5,179.5C 35.7234,183.162 36.7234,186.495 38.5,189.5C 38.5,190.167 38.5,190.833 38.5,191.5C 38.5,192.833 38.5,194.167 38.5,195.5C 33.9884,179.797 28.3217,164.464 21.5,149.5 Z"/></g>
    <g><path style="opacity:1" fill="#978625" d="M 27.5,159.5 C 29.4077,160.486 30.4077,162.152 30.5,164.5C 28.7497,163.341 27.7497,161.674 27.5,159.5 Z"/></g>
    <g><path style="opacity:1" fill="#8c7c1e" d="M 142.5,158.5 C 142.573,160.027 141.906,161.027 140.5,161.5C 140.427,159.973 141.094,158.973 142.5,158.5 Z"/></g>
    <g><path style="opacity:1" fill="#e1c937" d="M 24.5,152.5 C 27.3918,155.271 30.0584,158.271 32.5,161.5C 32.31,165.032 32.9767,168.365 34.5,171.5C 33.8333,171.167 33.1667,170.833 32.5,170.5C 31.8333,168.5 31.1667,166.5 30.5,164.5C 30.4077,162.152 29.4077,160.486 27.5,159.5C 26.758,157.02 25.758,154.687 24.5,152.5 Z"/></g>
    <g><path style="opacity:1" fill="#77671a" d="M 140.5,163.5 C 139.962,165.117 139.629,166.784 139.5,168.5C 139.167,168.5 138.833,168.5 138.5,168.5C 138.12,166.302 138.787,164.635 140.5,163.5 Z"/></g>
    <g><path style="opacity:1" fill="#a59127" d="M 32.5,170.5 C 33.1667,170.833 33.8333,171.167 34.5,171.5C 34.5172,173.565 34.8505,175.565 35.5,177.5C 33.7587,175.605 32.7587,173.272 32.5,170.5 Z"/></g>
    <g><path style="opacity:1" fill="#e8cd39" d="M 144.5,151.5 C 143.89,152.391 143.557,153.391 143.5,154.5C 143.167,155.833 142.833,157.167 142.5,158.5C 141.094,158.973 140.427,159.973 140.5,161.5C 140.5,162.167 140.5,162.833 140.5,163.5C 138.787,164.635 138.12,166.302 138.5,168.5C 136.706,170.428 135.706,172.762 135.5,175.5C 133.345,177.617 132.345,180.284 132.5,183.5C 132.371,185.216 132.038,186.883 131.5,188.5C 129.926,190.102 129.259,192.102 129.5,194.5C 129.5,195.167 129.5,195.833 129.5,196.5C 129.167,196.5 128.833,196.5 128.5,196.5C 129.752,189.891 130.919,183.224 132,176.5C 133.617,170.712 135.783,165.379 138.5,160.5C 140.673,157.983 141.673,154.983 141.5,151.5C 142.5,151.5 143.5,151.5 144.5,151.5 Z"/></g>
    <g><path style="opacity:1" fill="#a6942d" d="M 135.5,175.5 C 134.871,178.397 133.871,181.064 132.5,183.5C 132.345,180.284 133.345,177.617 135.5,175.5 Z"/></g>
    <g><path style="opacity:0.953" fill="#80701c" d="M 35.5,179.5 C 37.2766,182.505 38.2766,185.838 38.5,189.5C 36.7234,186.495 35.7234,183.162 35.5,179.5 Z"/></g>
    <g><path style="opacity:1" fill="#958327" d="M 131.5,188.5 C 131.741,190.898 131.074,192.898 129.5,194.5C 129.259,192.102 129.926,190.102 131.5,188.5 Z"/></g>
    <g><path style="opacity:0.969" fill="#625516" d="M 38.5,191.5 C 40.2576,194.854 41.2576,198.521 41.5,202.5C 40.8333,201.833 40.1667,201.167 39.5,200.5C 38.5489,199.081 38.2155,197.415 38.5,195.5C 38.5,194.167 38.5,192.833 38.5,191.5 Z"/></g>
    <g><path style="opacity:0.451" fill="#40360e" d="M 138.5,168.5 C 138.833,168.5 139.167,168.5 139.5,168.5C 134.873,181.685 131.206,195.018 128.5,208.5C 128.5,207.833 128.5,207.167 128.5,206.5C 128.616,203.14 128.949,199.807 129.5,196.5C 129.5,195.833 129.5,195.167 129.5,194.5C 131.074,192.898 131.741,190.898 131.5,188.5C 132.038,186.883 132.371,185.216 132.5,183.5C 133.871,181.064 134.871,178.397 135.5,175.5C 135.706,172.762 136.706,170.428 138.5,168.5 Z"/></g>
    <g><path style="opacity:0.624" fill="#423612" d="M 39.5,200.5 C 40.1667,201.167 40.8333,201.833 41.5,202.5C 41.5,203.167 41.5,203.833 41.5,204.5C 41.4326,205.959 41.7659,207.292 42.5,208.5C 40.3072,206.478 39.3072,203.811 39.5,200.5 Z"/></g>
    <g><path style="opacity:1" fill="#ebd041" d="M 35.5,177.5 C 36.7498,177.577 37.5831,178.244 38,179.5C 39.7875,187.947 41.6208,196.281 43.5,204.5C 71.1586,205.5 98.8253,205.833 126.5,205.5C 99.005,206.498 71.3384,206.831 43.5,206.5C 42.8333,205.833 42.1667,205.167 41.5,204.5C 41.5,203.833 41.5,203.167 41.5,202.5C 41.2576,198.521 40.2576,194.854 38.5,191.5C 38.5,190.833 38.5,190.167 38.5,189.5C 38.2766,185.838 37.2766,182.505 35.5,179.5C 35.5,178.833 35.5,178.167 35.5,177.5 Z"/></g>
    <g><path style="opacity:1" fill="#c3ae3e" d="M 128.5,196.5 C 128.833,196.5 129.167,196.5 129.5,196.5C 128.949,199.807 128.616,203.14 128.5,206.5C 100.069,207.828 71.7356,207.828 43.5,206.5C 71.3384,206.831 99.005,206.498 126.5,205.5C 127.323,202.539 127.99,199.539 128.5,196.5 Z"/></g>
    <g><path style="opacity:0.969" fill="#625315" d="M 41.5,204.5 C 42.1667,205.167 42.8333,205.833 43.5,206.5C 71.7356,207.828 100.069,207.828 128.5,206.5C 128.5,207.167 128.5,207.833 128.5,208.5C 127.833,208.5 127.167,208.5 126.5,208.5C 98.5,208.5 70.5,208.5 42.5,208.5C 41.7659,207.292 41.4326,205.959 41.5,204.5 Z"/></g>
    <g><path style="opacity:0.224" fill="#101115" d="M 67.5,222.5 C 67.5,222.833 67.5,223.167 67.5,223.5C 59.8252,223.68 52.1585,224.014 44.5,224.5C 44.5,224.167 44.5,223.833 44.5,223.5C 52.111,222.566 59.7777,222.233 67.5,222.5 Z"/></g>
    <g><path style="opacity:1" fill="#5b6063" d="M 81.5,224.5 C 95.9905,223.504 110.657,223.171 125.5,223.5C 125.806,226.385 125.473,229.052 124.5,231.5C 117.826,231.713 111.159,232.046 104.5,232.5C 105.919,231.549 107.585,231.216 109.5,231.5C 114.438,230.608 119.438,230.274 124.5,230.5C 124.5,228.5 124.5,226.5 124.5,224.5C 119.167,224.5 113.833,224.5 108.5,224.5C 99.5,224.5 90.5,224.5 81.5,224.5 Z"/></g>
    <g><path style="opacity:1" fill="#878c90" d="M 81.5,225.5 C 81.5,225.167 81.5,224.833 81.5,224.5C 90.5,224.5 99.5,224.5 108.5,224.5C 109.704,226.903 110.038,229.236 109.5,231.5C 107.585,231.216 105.919,231.549 104.5,232.5C 102.167,232.5 99.8333,232.5 97.5,232.5C 97.1667,232.5 96.8333,232.5 96.5,232.5C 97.8083,231.768 99.1416,230.934 100.5,230C 97.8333,228.667 97.8333,227.333 100.5,226C 94.1754,225.5 87.8421,225.334 81.5,225.5 Z"/></g>
    <g><path style="opacity:0.824" fill="#191c1f" d="M 103.5,220.5 C 106.5,220.5 109.5,220.5 112.5,220.5C 115.167,220.5 117.833,220.5 120.5,220.5C 122.556,221.216 124.723,221.883 127,222.5C 127.888,226.402 127.388,230.069 125.5,233.5C 123.262,234.537 120.929,234.703 118.5,234C 120.611,233.155 122.611,232.322 124.5,231.5C 125.473,229.052 125.806,226.385 125.5,223.5C 116.682,222.507 107.682,222.173 98.5,222.5C 98.5,222.167 98.5,221.833 98.5,221.5C 100.415,221.784 102.081,221.451 103.5,220.5 Z"/></g>
    <g><path style="opacity:1" fill="#6d7378" d="M 81.5,224.5 C 81.5,224.833 81.5,225.167 81.5,225.5C 77.8333,225.5 74.1667,225.5 70.5,225.5C 69.1266,225.343 67.7932,225.51 66.5,226C 66.0449,228.312 65.0449,230.312 63.5,232C 65.4727,232.495 67.4727,232.662 69.5,232.5C 78.5,232.5 87.5,232.5 96.5,232.5C 96.8333,232.5 97.1667,232.5 97.5,232.5C 93.03,233.486 88.3633,233.819 83.5,233.5C 70.8333,233.5 58.1667,233.5 45.5,233.5C 45.5,231.167 45.5,228.833 45.5,226.5C 50.0323,226.818 54.3656,226.485 58.5,225.5C 66.1421,224.737 73.8088,224.403 81.5,224.5 Z"/></g>
    <g><path style="opacity:1" fill="#8d9295" d="M 70.5,225.5 C 69.6314,227.717 69.298,230.05 69.5,232.5C 67.4727,232.662 65.4727,232.495 63.5,232C 65.0449,230.312 66.0449,228.312 66.5,226C 67.7932,225.51 69.1266,225.343 70.5,225.5 Z"/></g>
    <g><path style="opacity:1" fill="#aaabac" d="M 70.5,225.5 C 74.1667,225.5 77.8333,225.5 81.5,225.5C 87.8421,225.334 94.1754,225.5 100.5,226C 97.8333,227.333 97.8333,228.667 100.5,230C 99.1416,230.934 97.8083,231.768 96.5,232.5C 87.5,232.5 78.5,232.5 69.5,232.5C 69.298,230.05 69.6314,227.717 70.5,225.5 Z"/></g>
    <g><path style="opacity:1" fill="#6b7377" d="M 108.5,224.5 C 113.833,224.5 119.167,224.5 124.5,224.5C 124.5,226.5 124.5,228.5 124.5,230.5C 119.438,230.274 114.438,230.608 109.5,231.5C 110.038,229.236 109.704,226.903 108.5,224.5 Z"/></g>
    <g><path style="opacity:0.888" fill="#272827" d="M 42.5,208.5 C 70.5,208.5 98.5,208.5 126.5,208.5C 127.897,209.819 128.563,211.486 128.5,213.5C 128.003,215.818 127.67,218.152 127.5,220.5C 125.167,220.5 122.833,220.5 120.5,220.5C 117.833,220.5 115.167,220.5 112.5,220.5C 116.833,219.833 121.167,219.167 125.5,218.5C 126.468,216.393 126.802,214.059 126.5,211.5C 103.668,210.5 81.0017,210.5 58.5,211.5C 53.5,211.5 48.5,211.5 43.5,211.5C 43.5,214.833 43.5,218.167 43.5,221.5C 58.676,221.829 73.676,221.496 88.5,220.5C 91.1667,220.5 93.8333,220.5 96.5,220.5C 98.8333,220.5 101.167,220.5 103.5,220.5C 102.081,221.451 100.415,221.784 98.5,221.5C 94.5,221.833 94.5,222.167 98.5,222.5C 107.682,222.173 116.682,222.507 125.5,223.5C 110.657,223.171 95.9905,223.504 81.5,224.5C 73.8088,224.403 66.1421,224.737 58.5,225.5C 53.8333,225.5 49.1667,225.5 44.5,225.5C 44.5,228.5 44.5,231.5 44.5,234.5C 57.6774,234.829 70.6774,234.495 83.5,233.5C 88.3633,233.819 93.03,233.486 97.5,232.5C 99.8333,232.5 102.167,232.5 104.5,232.5C 111.159,232.046 117.826,231.713 124.5,231.5C 122.611,232.322 120.611,233.155 118.5,234C 120.929,234.703 123.262,234.537 125.5,233.5C 126.43,237.4 126.763,241.4 126.5,245.5C 121.461,245.451 121.295,246.118 126,247.5C 126.553,255.124 123.053,259.79 115.5,261.5C 115.5,261.167 115.5,260.833 115.5,260.5C 120.592,258.701 123.592,255.034 124.5,249.5C 111.098,248.825 97.598,248.158 84,247.5C 80.9433,248.451 77.7766,248.784 74.5,248.5C 75.5,247.833 76.5,247.167 77.5,246.5C 79.7354,246.795 81.7354,246.461 83.5,245.5C 85.5,245.5 87.5,245.5 89.5,245.5C 93.8333,245.5 98.1667,245.5 102.5,245.5C 110.154,244.93 117.821,244.596 125.5,244.5C 125.5,241.5 125.5,238.5 125.5,235.5C 112.587,235.822 99.7536,235.489 87,234.5C 84.3927,235.123 81.8927,235.79 79.5,236.5C 79.5,236.833 79.5,237.167 79.5,237.5C 76.5,237.5 73.5,237.5 70.5,237.5C 67.8333,237.5 65.1667,237.5 62.5,237.5C 56.8236,237.334 51.1569,237.501 45.5,238C 44.5562,240.719 44.2229,243.552 44.5,246.5C 44.5,246.833 44.5,247.167 44.5,247.5C 43.0069,246.688 42.3402,245.355 42.5,243.5C 42.6692,241.161 43.3358,238.994 44.5,237C 49.5,236.667 54.5,236.333 59.5,236C 54.1667,235.667 48.8333,235.333 43.5,235C 42.3832,231.927 42.2165,228.76 43,225.5C 43.3826,224.944 43.8826,224.611 44.5,224.5C 52.1585,224.014 59.8252,223.68 67.5,223.5C 68.8333,223.167 68.8333,222.833 67.5,222.5C 59.7777,222.233 52.111,222.566 44.5,223.5C 43.8826,223.389 43.3826,223.056 43,222.5C 41.603,217.825 41.4363,213.158 42.5,208.5 Z"/></g>
    <g><path style="opacity:1" fill="#505558" d="M 125.5,218.5 C 121.167,219.167 116.833,219.833 112.5,220.5C 109.5,220.5 106.5,220.5 103.5,220.5C 101.167,220.5 98.8333,220.5 96.5,220.5C 96.5,220.167 96.5,219.833 96.5,219.5C 97.8333,219.5 99.1667,219.5 100.5,219.5C 102.5,219.5 104.5,219.5 106.5,219.5C 112.804,218.74 119.137,218.407 125.5,218.5 Z"/></g>
    <g><path style="opacity:1" fill="#636a6d" d="M 58.5,211.5 C 81.0017,210.5 103.668,210.5 126.5,211.5C 126.802,214.059 126.468,216.393 125.5,218.5C 119.137,218.407 112.804,218.74 106.5,219.5C 107.718,218.839 109.051,218.172 110.5,217.5C 109.835,215.899 109.501,214.399 109.5,213C 92.5381,211.607 75.5381,211.107 58.5,211.5 Z"/></g>
    <g><path style="opacity:1" fill="#8d9194" d="M 68.5,212.5 C 69.0818,214.669 69.0818,217.002 68.5,219.5C 77.8333,219.5 87.1667,219.5 96.5,219.5C 96.5,219.833 96.5,220.167 96.5,220.5C 93.8333,220.5 91.1667,220.5 88.5,220.5C 81.1667,220.5 73.8333,220.5 66.5,220.5C 64.7982,218.2 64.1315,215.533 64.5,212.5C 65.8333,212.5 67.1667,212.5 68.5,212.5 Z"/></g>
    <g><path style="opacity:1" fill="#7d8389" d="M 58.5,211.5 C 75.5381,211.107 92.5381,211.607 109.5,213C 109.501,214.399 109.835,215.899 110.5,217.5C 109.051,218.172 107.718,218.839 106.5,219.5C 104.5,219.5 102.5,219.5 100.5,219.5C 101.219,217.236 101.552,214.903 101.5,212.5C 90.5,212.5 79.5,212.5 68.5,212.5C 67.1667,212.5 65.8333,212.5 64.5,212.5C 64.1315,215.533 64.7982,218.2 66.5,220.5C 62.8333,220.5 59.1667,220.5 55.5,220.5C 55.838,217.989 55.838,215.655 55.5,213.5C 56.6016,212.824 57.6016,212.158 58.5,211.5 Z"/></g>
    <g><path style="opacity:1" fill="#a8abab" d="M 68.5,212.5 C 79.5,212.5 90.5,212.5 101.5,212.5C 101.552,214.903 101.219,217.236 100.5,219.5C 99.1667,219.5 97.8333,219.5 96.5,219.5C 87.1667,219.5 77.8333,219.5 68.5,219.5C 69.0818,217.002 69.0818,214.669 68.5,212.5 Z"/></g>
    <g><path style="opacity:1" fill="#636a6e" d="M 58.5,211.5 C 57.6016,212.158 56.6016,212.824 55.5,213.5C 55.838,215.655 55.838,217.989 55.5,220.5C 59.1667,220.5 62.8333,220.5 66.5,220.5C 73.8333,220.5 81.1667,220.5 88.5,220.5C 73.676,221.496 58.676,221.829 43.5,221.5C 43.5,218.167 43.5,214.833 43.5,211.5C 48.5,211.5 53.5,211.5 58.5,211.5 Z"/></g>
    <g><path style="opacity:1" fill="#4c5155" d="M 58.5,225.5 C 54.3656,226.485 50.0323,226.818 45.5,226.5C 45.5,228.833 45.5,231.167 45.5,233.5C 58.1667,233.5 70.8333,233.5 83.5,233.5C 70.6774,234.495 57.6774,234.829 44.5,234.5C 44.5,231.5 44.5,228.5 44.5,225.5C 49.1667,225.5 53.8333,225.5 58.5,225.5 Z"/></g>
    <g><path style="opacity:1" fill="#414648" d="M 102.5,245.5 C 105.627,244.419 108.96,243.753 112.5,243.5C 116.5,243.5 120.5,243.5 124.5,243.5C 124.5,241.167 124.5,238.833 124.5,236.5C 119.5,236.5 114.5,236.5 109.5,236.5C 99.5,236.5 89.5,236.5 79.5,236.5C 81.8927,235.79 84.3927,235.123 87,234.5C 99.7536,235.489 112.587,235.822 125.5,235.5C 125.5,238.5 125.5,241.5 125.5,244.5C 117.821,244.596 110.154,244.93 102.5,245.5 Z"/></g>
    <g><path style="opacity:1" fill="#697175" d="M 109.5,236.5 C 114.5,236.5 119.5,236.5 124.5,236.5C 124.5,238.833 124.5,241.167 124.5,243.5C 120.5,243.5 116.5,243.5 112.5,243.5C 112.05,240.872 111.05,238.539 109.5,236.5 Z"/></g>
    <g><path style="opacity:1" fill="#6c7379" d="M 62.5,237.5 C 65.1667,237.5 67.8333,237.5 70.5,237.5C 68.369,238.314 66.0356,238.814 63.5,239C 63.1054,241.223 62.7721,243.389 62.5,245.5C 56.8333,245.5 51.1667,245.5 45.5,245.5C 45.5,243.5 45.5,241.5 45.5,239.5C 51.4042,239.679 57.0709,239.012 62.5,237.5 Z"/></g>
    <g><path style="opacity:1" fill="#7c8386" d="M 79.5,237.5 C 79.5,237.167 79.5,236.833 79.5,236.5C 89.5,236.5 99.5,236.5 109.5,236.5C 111.05,238.539 112.05,240.872 112.5,243.5C 108.96,243.753 105.627,244.419 102.5,245.5C 98.1667,245.5 93.8333,245.5 89.5,245.5C 89.5,245.167 89.5,244.833 89.5,244.5C 91.8333,244.5 94.1667,244.5 96.5,244.5C 98.1439,244.714 99.6439,244.38 101,243.5C 101.495,241.527 101.662,239.527 101.5,237.5C 94.1667,237.5 86.8333,237.5 79.5,237.5 Z"/></g>
    <g><path style="opacity:1" fill="#95999b" d="M 70.5,237.5 C 73.5,237.5 76.5,237.5 79.5,237.5C 86.8333,237.5 94.1667,237.5 101.5,237.5C 101.662,239.527 101.495,241.527 101,243.5C 99.6439,244.38 98.1439,244.714 96.5,244.5C 96.9175,243.778 97.5842,243.278 98.5,243C 97.6198,241.644 97.2865,240.144 97.5,238.5C 89.16,238.334 80.8267,238.5 72.5,239C 74.5268,240.396 74.8602,242.062 73.5,244C 78.8229,244.499 84.1563,244.666 89.5,244.5C 89.5,244.833 89.5,245.167 89.5,245.5C 87.5,245.5 85.5,245.5 83.5,245.5C 76.5,245.5 69.5,245.5 62.5,245.5C 62.7721,243.389 63.1054,241.223 63.5,239C 66.0356,238.814 68.369,238.314 70.5,237.5 Z"/></g>
    <g><path style="opacity:1" fill="#aaacad" d="M 96.5,244.5 C 94.1667,244.5 91.8333,244.5 89.5,244.5C 84.1563,244.666 78.8229,244.499 73.5,244C 74.8602,242.062 74.5268,240.396 72.5,239C 80.8267,238.5 89.16,238.334 97.5,238.5C 97.2865,240.144 97.6198,241.644 98.5,243C 97.5842,243.278 96.9175,243.778 96.5,244.5 Z"/></g>
    <g><path style="opacity:1" fill="#585c5f" d="M 62.5,237.5 C 57.0709,239.012 51.4042,239.679 45.5,239.5C 45.5,241.5 45.5,243.5 45.5,245.5C 51.1667,245.5 56.8333,245.5 62.5,245.5C 69.5,245.5 76.5,245.5 83.5,245.5C 81.7354,246.461 79.7354,246.795 77.5,246.5C 66.5,246.5 55.5,246.5 44.5,246.5C 44.2229,243.552 44.5562,240.719 45.5,238C 51.1569,237.501 56.8236,237.334 62.5,237.5 Z"/></g>
    <g><path style="opacity:0.149" fill="#131518" d="M 44.5,247.5 C 52.5069,247.334 60.5069,247.5 68.5,248C 62.4866,249.35 56.4866,249.85 50.5,249.5C 48.5,248.833 46.5,248.167 44.5,247.5 Z"/></g>
    <g><path style="opacity:0.733" fill="#2f3334" d="M 44.5,247.5 C 44.5,247.167 44.5,246.833 44.5,246.5C 55.5,246.5 66.5,246.5 77.5,246.5C 76.5,247.167 75.5,247.833 74.5,248.5C 74.5,248.833 74.5,249.167 74.5,249.5C 73.5084,249.328 72.8417,249.662 72.5,250.5C 71.1667,250.5 69.8333,250.5 68.5,250.5C 65.1667,250.5 61.8333,250.5 58.5,250.5C 54.1667,250.5 49.8333,250.5 45.5,250.5C 46.4239,255.755 49.4239,259.088 54.5,260.5C 54.5,260.833 54.5,261.167 54.5,261.5C 47.2429,260.761 43.9095,256.927 44.5,250C 46.4727,249.505 48.4727,249.338 50.5,249.5C 56.4866,249.85 62.4866,249.35 68.5,248C 60.5069,247.5 52.5069,247.334 44.5,247.5 Z"/></g>
    <g><path style="opacity:1" fill="#525556" d="M 124.5,249.5 C 118.833,249.5 113.167,249.5 107.5,249.5C 96.5,249.5 85.5,249.5 74.5,249.5C 74.5,249.167 74.5,248.833 74.5,248.5C 77.7766,248.784 80.9433,248.451 84,247.5C 97.598,248.158 111.098,248.825 124.5,249.5 Z"/></g>
    <g><path style="opacity:1" fill="#687177" d="M 107.5,249.5 C 113.167,249.5 118.833,249.5 124.5,249.5C 123.592,255.034 120.592,258.701 115.5,260.5C 110.833,260.5 106.167,260.5 101.5,260.5C 103.969,259.683 106.635,259.183 109.5,259C 106.85,256.235 106.183,253.068 107.5,249.5 Z"/></g>
    <g><path style="opacity:1" fill="#60686c" d="M 58.5,250.5 C 56.8442,253.139 55.1776,255.805 53.5,258.5C 55.9688,259.168 58.3021,259.835 60.5,260.5C 58.5,260.5 56.5,260.5 54.5,260.5C 49.4239,259.088 46.4239,255.755 45.5,250.5C 49.8333,250.5 54.1667,250.5 58.5,250.5 Z"/></g>
    <g><path style="opacity:1" fill="#8f9294" d="M 74.5,249.5 C 85.5,249.5 96.5,249.5 107.5,249.5C 106.183,253.068 106.85,256.235 109.5,259C 106.635,259.183 103.969,259.683 101.5,260.5C 91.1667,260.5 80.8333,260.5 70.5,260.5C 68.7078,259.691 66.7078,259.191 64.5,259C 66.6483,256.925 66.9817,254.592 65.5,252C 66.7375,251.768 67.7375,251.268 68.5,250.5C 69.8333,250.5 71.1667,250.5 72.5,250.5C 72.8417,249.662 73.5084,249.328 74.5,249.5 Z"/></g>
    <g><path style="opacity:1" fill="#aaabab" d="M 72.5,250.5 C 80.5069,250.334 88.5069,250.5 96.5,251C 97.8333,253 97.8333,255 96.5,257C 97.1667,257.667 97.8333,258.333 98.5,259C 89.5062,259.5 80.5062,259.666 71.5,259.5C 71.6199,257.266 71.2865,255.099 70.5,253C 71.0556,251.989 71.7222,251.156 72.5,250.5 Z"/></g>
    <g><path style="opacity:1" fill="#747e84" d="M 58.5,250.5 C 61.8333,250.5 65.1667,250.5 68.5,250.5C 67.7375,251.268 66.7375,251.768 65.5,252C 66.9817,254.592 66.6483,256.925 64.5,259C 66.7078,259.191 68.7078,259.691 70.5,260.5C 67.1667,260.5 63.8333,260.5 60.5,260.5C 58.3021,259.835 55.9688,259.168 53.5,258.5C 55.1776,255.805 56.8442,253.139 58.5,250.5 Z"/></g>
    <g><path style="opacity:0.996" fill="#515354" d="M 54.5,260.5 C 56.5,260.5 58.5,260.5 60.5,260.5C 63.8333,260.5 67.1667,260.5 70.5,260.5C 80.8333,260.5 91.1667,260.5 101.5,260.5C 106.167,260.5 110.833,260.5 115.5,260.5C 115.5,260.833 115.5,261.167 115.5,261.5C 95.3264,261.17 75.3264,261.503 55.5,262.5C 54.8333,262.5 54.5,262.167 54.5,261.5C 54.5,261.167 54.5,260.833 54.5,260.5 Z"/></g>
    <g><path style="opacity:1" fill="#232528" d="M 55.5,262.5 C 75.3264,261.503 95.3264,261.17 115.5,261.5C 114.048,262.302 112.382,262.802 110.5,263C 111.916,264.915 111.582,266.415 109.5,267.5C 109.5,266.5 109.5,265.5 109.5,264.5C 106.833,264.5 104.167,264.5 101.5,264.5C 93.1667,264.5 84.8333,264.5 76.5,264.5C 70.7945,264.171 65.1278,264.505 59.5,265.5C 61.215,267.882 63.215,269.882 65.5,271.5C 60.3661,270.574 58.3661,267.741 59.5,263C 58.2068,262.51 56.8734,262.343 55.5,262.5 Z"/></g>
    <g><path style="opacity:1" fill="#a8aaa9" d="M 75.5,265.5 C 75.8333,265.5 76.1667,265.5 76.5,265.5C 82.1667,265.5 87.8333,265.5 93.5,265.5C 93.7214,268.279 93.388,270.946 92.5,273.5C 92.1667,273.5 91.8333,273.5 91.5,273.5C 86.1203,273.676 80.787,273.342 75.5,272.5C 75.5,270.167 75.5,267.833 75.5,265.5 Z"/></g>
    <g><path style="opacity:1" fill="#5a5f62" d="M 76.5,264.5 C 76.5,264.833 76.5,265.167 76.5,265.5C 76.1667,265.5 75.8333,265.5 75.5,265.5C 72.1501,265.335 68.8168,265.502 65.5,266C 66.3802,267.356 66.7135,268.856 66.5,270.5C 69.2097,271.506 71.8763,272.506 74.5,273.5C 73.1667,273.5 71.8333,273.5 70.5,273.5C 68.4471,273.598 66.7804,272.931 65.5,271.5C 63.215,269.882 61.215,267.882 59.5,265.5C 65.1278,264.505 70.7945,264.171 76.5,264.5 Z"/></g>
    <g><path style="opacity:1" fill="#5f6668" d="M 101.5,264.5 C 104.167,264.5 106.833,264.5 109.5,264.5C 109.5,265.5 109.5,266.5 109.5,267.5C 106.05,269.609 102.384,271.276 98.5,272.5C 99.287,270.896 100.62,270.229 102.5,270.5C 102.675,268.379 102.341,266.379 101.5,264.5 Z"/></g>
    <g><path style="opacity:1" fill="#808588" d="M 75.5,265.5 C 75.5,267.833 75.5,270.167 75.5,272.5C 80.787,273.342 86.1203,273.676 91.5,273.5C 85.8333,274.833 80.1667,274.833 74.5,273.5C 71.8763,272.506 69.2097,271.506 66.5,270.5C 66.7135,268.856 66.3802,267.356 65.5,266C 68.8168,265.502 72.1501,265.335 75.5,265.5 Z"/></g>
    <g><path style="opacity:1" fill="#82878a" d="M 76.5,265.5 C 76.5,265.167 76.5,264.833 76.5,264.5C 84.8333,264.5 93.1667,264.5 101.5,264.5C 102.341,266.379 102.675,268.379 102.5,270.5C 100.62,270.229 99.287,270.896 98.5,272.5C 96.4352,272.517 94.4352,272.85 92.5,273.5C 93.388,270.946 93.7214,268.279 93.5,265.5C 87.8333,265.5 82.1667,265.5 76.5,265.5 Z"/></g>
    <g><path style="opacity:0.784" fill="#292b2c" d="M 109.5,267.5 C 108.71,268.794 107.71,269.961 106.5,271C 102.843,272.822 99.1759,274.322 95.5,275.5C 88.1667,275.5 80.8333,275.5 73.5,275.5C 72.5,274.833 71.5,274.167 70.5,273.5C 71.8333,273.5 73.1667,273.5 74.5,273.5C 80.1667,274.833 85.8333,274.833 91.5,273.5C 91.8333,273.5 92.1667,273.5 92.5,273.5C 94.4352,272.85 96.4352,272.517 98.5,272.5C 102.384,271.276 106.05,269.609 109.5,267.5 Z"/></g>
    </svg>